<svg width="135px" height="40px" viewBox="0 0 135 40"><desc>Created with Sketch.</desc><defs><linearGradient x1="49.9984472%" y1="100.265508%" x2="49.9984472%" y2="-260.382794%" id="linearGradientAppStore-1"><stop stop-color="#1A1A1A" stop-opacity="0.1" offset="0%"></stop><stop stop-color="#212121" stop-opacity="0.151" offset="12.3%"></stop><stop stop-color="#353535" stop-opacity="0.227" offset="30.8%"></stop><stop stop-color="#575757" stop-opacity="0.318" offset="53.2%"></stop><stop stop-color="#858585" stop-opacity="0.421" offset="78.3%"></stop><stop stop-color="#B3B3B3" stop-opacity="0.51" offset="100%"></stop></linearGradient></defs><g id="FInal" stroke="none" stroke-width="1" fill="none" fill-rule="evenodd"><g id="GetmyApp11" transform="translate(-942.000000, -767.000000)" fill-rule="nonzero"><g id="Group-4" transform="translate(789.000000, 651.000000)"><g id="google-play-badge" transform="translate(0.000000, 106.000000)"><g id="download-on-the-app-store-apple" transform="translate(153.000000, 10.000000)"><path d="M134,35.1908482 C134.000001,36.2017871 133.596366,37.1712626 132.878003,37.8857312 C132.15964,38.6001999 131.185477,39.0010537 130.170089,38.9999979 L4.83490559,38.9999979 C2.71954166,39.0021964 1.00275682,37.2969418 1,35.1908482 L1,4.81412248 C1.00275536,2.7072249 2.71873304,1.00054689 4.83490559,1 L130.16909,1 C131.185019,0.999999966 132.159323,1.4018756 132.877599,2.11719092 C133.595876,2.83250624 133.999266,3.80264577 133.999001,4.81412248 L134,35.1908482 Z" id="Path" fill="#FFFFFF"></path><path d="M130.269406,40 L4.73159356,40 C2.12175721,39.9994531 0.00496580476,37.88682 0,35.2777014 L0,4.72730001 C0.0038608321,2.11691334 2.12049159,0.00220326476 4.73159356,0 L130.268405,0 C132.879051,0.00330249303 134.995039,2.11736983 134.999999,4.72730001 L134.999999,35.2777014 C135.002,37.8824177 132.875834,40 130.269406,40 L130.269406,40 Z" id="Path" fill="#A6A6A6"></path><path d="M134,35.1908482 C134.000001,36.2017871 133.596366,37.1712626 132.878003,37.8857312 C132.15964,38.6001999 131.185477,39.0010537 130.170089,38.9999979 L4.83490559,38.9999979 C2.71954166,39.0021964 1.00275682,37.2969418 1,35.1908482 L1,4.81412248 C1.00275536,2.7072249 2.71873304,1.00054689 4.83490559,1 L130.16909,1 C131.185019,0.999999966 132.159323,1.4018756 132.877599,2.11719092 C133.595876,2.83250624 133.999266,3.80264577 133.999001,4.81412248 L134,35.1908482 Z" id="Path" fill="#000000"></path><path d="M30.5398117,19.2949505 C30.5104709,16.1365791 33.2098225,14.6000211 33.3332561,14.5284849 C31.8045004,12.3696601 29.4349796,12.0746958 28.6023086,12.0511771 C26.6121944,11.8483279 24.6817735,13.2045755 23.667999,13.2045755 C22.6339896,13.2045755 21.0728578,12.070776 19.3903159,12.1040943 C17.2251688,12.1364325 15.1996434,13.3505877 14.0887408,15.2360071 C11.7961131,19.080342 13.5059723,24.7297405 15.7024836,27.8371547 C16.8012452,29.3599934 18.0851572,31.0582428 19.7656755,30.998466 C21.4097709,30.9337894 22.0239037,29.9842201 24.0079474,29.9842201 C25.9737795,29.9842201 26.5504776,30.998466 28.2643837,30.960248 C30.0288774,30.9337894 31.13978,29.4315296 32.200095,27.8959515 C33.4698425,26.1526246 33.979765,24.4337963 34,24.345601 C33.95953,24.3318817 30.5742112,23.0795086 30.5398117,19.2949505 Z M27.3022085,10.0070062 C28.1864789,8.93592332 28.791506,7.47874109 28.6235553,6 C27.3436903,6.05487707 25.7431003,6.85745424 24.8213952,7.90501834 C24.0059239,8.82812908 23.2774632,10.3411683 23.4656489,11.7640524 C24.903347,11.8679269 26.3794917,11.0614299 27.3022085,10.0070062 L27.3022085,10.0070062 Z" id="Shape" fill="#FFFFFF"></path><path d="M130.266661,5.25724154e-16 L63,0 L89.3471516,40 L130.266661,40 C132.877946,39.9977993 134.995035,37.8843058 135,35.2747005 L135,4.72730001 C134.995588,2.11714164 132.878498,0.00275310063 130.266661,5.25724154e-16 Z" id="Path" fill="url(#linearGradientAppStore-1)"></path><g id="Group" transform="translate(42.000000, 18.000000)" fill="#FFFFFF"><path d="M11.3347337,13.1997422 L9.05829372,13.1997422 L7.8113138,9.39291085 L3.47695596,9.39291085 L2.28911738,13.1997422 L0.0728210798,13.1997422 L4.3680855,0.239570354 L7.02042381,0.239570354 L11.3347337,13.1997422 L11.3347337,13.1997422 Z M7.43541552,7.79577515 L6.30772066,4.41160043 C6.1884356,4.06587898 5.96389902,3.25172932 5.63511332,1.97012531 L5.59501751,1.97012531 C5.46270131,2.5213319 5.25119587,3.33548156 4.96150359,4.41160043 L3.85285425,7.79577515 L7.43541552,7.79577515 Z M22.3590787,8.41223058 C22.3590787,10.0015754 21.9150175,11.2578589 21.0258928,12.1801074 C20.2299908,13.0010741 19.2406265,13.4110705 18.0608071,13.4110705 C16.7867625,13.4110705 15.8705731,12.9699105 15.3142436,12.0856427 L15.3142436,16.989044 L13.1771365,16.989044 L13.1771365,6.92611529 C13.1771365,5.92790548 13.1500719,4.90437522 13.0979473,3.85455066 L14.9774387,3.85455066 L15.0967238,5.33579663 L15.1368196,5.33579663 C15.8495228,4.21974937 16.9311074,3.66172574 18.382576,3.66172574 C19.5172876,3.66172574 20.4645513,4.09704261 21.2223623,4.9686502 C21.9791708,5.84220551 22.3590787,6.9894164 22.3590787,8.41223058 Z M20.1818758,8.48819191 C20.1818758,7.57860365 19.9713728,6.82872897 19.5483619,6.23759398 C19.0862576,5.62308629 18.4657748,5.31534551 17.687916,5.31534551 C17.160656,5.31534551 16.681511,5.48674544 16.2534881,5.82467598 C15.8244629,6.16552811 15.5437922,6.6105836 15.4124783,7.16179019 C15.3538572,7.36792941 15.3205466,7.5800832 15.3132412,7.79382743 L15.3132412,9.35298246 C15.3132412,10.0317651 15.5277538,10.6053706 15.9567791,11.0747726 C16.3858043,11.542227 16.9431362,11.776928 17.6287746,11.776928 C18.4336982,11.776928 19.0601953,11.4740566 19.5082661,10.873183 C19.9573392,10.2703616 20.1818758,9.47568922 20.1818758,8.48819191 L20.1818758,8.48819191 Z M33.422517,8.41223058 C33.422517,10.0015754 32.9784559,11.2578589 32.0893311,12.1801074 C31.2924268,13.0010741 30.3040649,13.4110705 29.123243,13.4110705 C27.8491985,13.4110705 26.933009,12.9699105 26.3766796,12.0856427 L26.3766796,16.989044 L24.2395725,16.989044 L24.2395725,6.92611529 C24.2395725,5.92790548 24.2125078,4.90437522 24.1603833,3.85455066 L26.0398747,3.85455066 L26.1591598,5.33579663 L26.1992556,5.33579663 C26.9109563,4.21974937 27.992541,3.66172574 29.445012,3.66172574 C30.5787212,3.66172574 31.5259849,4.09704261 32.2858006,4.9686502 C33.0416068,5.84220551 33.422517,6.9894164 33.422517,8.41223058 L33.422517,8.41223058 Z M31.2443118,8.48819191 C31.2443118,7.57860365 31.0328063,6.82872897 30.6097955,6.23759398 C30.1476912,5.62308629 29.5292132,5.31534551 28.7513543,5.31534551 C28.2240943,5.31534551 27.7449493,5.48674544 27.3149217,5.82467598 C26.8858964,6.16552811 26.6062281,6.6105836 26.4749143,7.16179019 C26.4097586,7.41889008 26.3746748,7.62827068 26.3746748,7.79382743 L26.3746748,9.35298246 C26.3746748,10.0317651 26.5901898,10.6053706 27.0172102,11.0747726 C27.4462355,11.5412531 28.0035673,11.776928 28.6912106,11.776928 C29.4971365,11.776928 30.1236337,11.4740566 30.570702,10.873183 C31.0197752,10.2703616 31.2443118,9.47568922 31.2443118,8.48819191 L31.2443118,8.48819191 Z M45.7920767,9.56431078 C45.7920767,10.6676978 45.3951281,11.5646259 44.6062429,12.2570426 C43.7381684,13.0127605 42.5262723,13.3915933 40.9725594,13.3915933 C39.5371292,13.3915933 38.3863792,13.122807 37.5183048,12.5842607 L38.0124857,10.8537057 C38.9497254,11.3932259 39.9791856,11.6620122 41.0998636,11.6620122 C41.9057896,11.6620122 42.5322867,11.4847691 42.9793551,11.1332044 C43.4274258,10.780666 43.6539672,10.3093161 43.6539672,9.72110276 C43.6539672,9.19424275 43.4665193,8.75308271 43.0986401,8.39372718 C42.7287562,8.03534551 42.117295,7.70131042 41.2582421,7.3945435 C38.9226608,6.54825636 37.7538677,5.31047619 37.7538677,3.68217687 C37.7538677,2.61871822 38.1668546,1.7480845 38.9908237,1.0673541 C39.8147927,0.387597565 40.9074037,0.0477192982 42.2666519,0.0477192982 C43.4805528,0.0477192982 44.4919698,0.25320444 45.2948885,0.663200859 L44.758607,2.35577515 C44.0028008,1.95843895 43.1497623,1.75977086 42.1954819,1.75977086 C41.4416805,1.75977086 40.8502672,1.93993555 40.4272563,2.29831722 C40.0714059,2.61871822 39.8909748,3.00923738 39.8909748,3.47279628 C39.8909748,3.98407447 40.0964658,4.40867884 40.5054432,4.74174006 C40.8602911,5.04850698 41.5078386,5.38254207 42.4440759,5.74092374 C43.5928211,6.19084855 44.436838,6.71478697 44.9771292,7.31663444 C45.5214299,7.91848192 45.7920767,8.66933047 45.7920767,9.56431078 Z M52.8760052,5.41273183 L50.5203759,5.41273183 L50.5203759,9.94996062 C50.5203759,11.1039885 50.9353676,11.6795417 51.7673558,11.6795417 C52.1492685,11.6795417 52.4660254,11.6483781 52.7166243,11.5831293 L52.7757656,13.1598138 C52.3547595,13.3127103 51.8004349,13.3896455 51.113794,13.3896455 C50.269777,13.3896455 49.6102008,13.1393627 49.134063,12.638797 C48.65993,12.1382313 48.4213599,11.2997351 48.4213599,10.1194128 L48.4213599,5.40883638 L47.0180063,5.40883638 L47.0180063,3.85065521 L48.4213599,3.85065521 L48.4213599,2.13957752 L50.5203759,1.52409595 L50.5203759,3.85065521 L52.8760052,3.85065521 L52.8760052,5.41273183 L52.8760052,5.41273183 Z M63.4833536,8.45021124 C63.4833536,9.88665951 63.0603427,11.0660079 62.2163258,11.9882564 C61.3332154,12.937773 60.158408,13.4110705 58.6939082,13.4110705 C57.2805307,13.4110705 56.1568454,12.9562764 55.3188428,12.047662 C54.4808402,11.1370999 54.061839,9.98988901 54.061839,8.60602936 C54.061839,7.15789474 54.4948738,5.97172932 55.3579362,5.04948084 C56.2230035,4.1262585 57.387787,3.66464733 58.8522867,3.66464733 C60.2636595,3.66464733 61.3973687,4.12041532 62.2554192,5.03000358 C63.0753787,5.91232367 63.4833536,7.05174364 63.4833536,8.45021124 Z M61.2680597,8.49793054 C61.2680597,7.64190476 61.0776046,6.90761189 60.6956919,6.29310419 C60.2476212,5.55102041 59.6060881,5.17997852 58.7751023,5.17997852 C57.9190566,5.17997852 57.2624876,5.55102041 56.8154192,6.29310419 C56.4325041,6.90761189 56.242049,7.65456498 56.242049,8.53688507 C56.242049,9.39388471 56.4325041,10.1301253 56.8154192,10.7426853 C57.2775235,11.4847691 57.9220638,11.855811 58.7570591,11.855811 C59.5740114,11.855811 60.2145421,11.4769782 60.6776488,10.7241819 C61.0705878,10.0950662 61.2680597,9.35590405 61.2680597,8.49793054 Z M70.4329611,5.68054422 C70.2106864,5.6415576 69.9852181,5.62232548 69.7593514,5.62308629 C69.0075548,5.62308629 68.4261655,5.89771572 68.0171881,6.45087003 C67.6623402,6.93780165 67.4839138,7.55328321 67.4839138,8.29634085 L67.4839138,13.1997422 L65.3468067,13.1997422 L65.3468067,6.79756534 C65.3487126,5.81655717 65.3279912,4.83563068 65.2846582,3.85552453 L67.1461065,3.85552453 L67.2242933,5.64353741 L67.2834347,5.64353741 C67.509976,5.02902972 67.864824,4.53333333 68.3519882,4.16229144 C68.7979072,3.83807067 69.3397128,3.66249561 69.8966796,3.66172574 C70.0941515,3.66172574 70.2725779,3.67535983 70.4309563,3.69970641 L70.4329611,5.68054422 L70.4329611,5.68054422 Z M79.9908015,8.08501253 C79.9962208,8.40064126 79.9700353,8.71603404 79.9126147,9.02673827 L73.5012935,9.02673827 C73.525351,9.94996062 73.8360936,10.6569853 74.4315165,11.1439169 C74.9718076,11.5782599 75.6704772,11.7964053 76.5285277,11.7964053 C77.4777962,11.7964053 78.3438659,11.6503258 79.1227271,11.3552453 L79.4575272,12.795589 C78.5473521,13.1812388 77.4727842,13.3730899 76.2328211,13.3730899 C74.7412567,13.3730899 73.5704588,12.9465378 72.7184227,12.0953813 C71.8683914,11.243251 71.4423733,10.0979878 71.4423733,8.66348729 C71.4423733,7.25528106 71.8383195,6.08177587 72.6312143,5.1458933 C73.4611977,4.14670963 74.5828782,3.64711779 75.994251,3.64711779 C77.3805638,3.64711779 78.4300719,4.14670963 79.142775,5.1458933 C79.7071236,5.93764411 79.9908015,6.91929825 79.9908015,8.08501253 L79.9908015,8.08501253 Z M77.9529316,7.54646617 C77.9679676,6.93001074 77.8276322,6.39925528 77.5379399,5.95030433 C77.168056,5.37182957 76.5986954,5.08356606 75.8358725,5.08356606 C75.1372029,5.08356606 74.5678423,5.36501253 74.1348074,5.9298532 C73.7789571,6.37880415 73.5674516,6.91832438 73.5022959,7.54451844 L77.9529316,7.54646617 Z" id="Shape"></path></g><g id="Group" transform="translate(44.000000, 7.000000)" fill="#FFFFFF"><path d="M1.62168312,6.85266458 C1.02631149,6.85266458 0.511259804,6.82432917 0.0825520696,6.77645208 L0.0825520696,0.489897917 C0.682149126,0.399757218 1.28806443,0.355327681 1.89477095,0.357014583 C4.34954943,0.357014583 5.48005273,1.53244583 5.48005273,3.44850625 C5.48005273,5.65866875 4.14473356,6.85266458 1.62168312,6.85266458 Z M1.98111489,1.16310833 C1.6497951,1.16310833 1.36767127,1.18265 1.13373942,1.22955 L1.13373942,6.00846458 C1.26024334,6.02800625 1.50321119,6.0368 1.84457098,6.0368 C3.45297798,6.0368 4.36862542,5.1457 4.36862542,3.47684167 C4.36862542,1.98874375 3.54032593,1.16310833 1.98111489,1.16310833 L1.98111489,1.16310833 Z M9.00308655,6.90054167 C7.61957541,6.90054167 6.72300396,5.89512292 6.72300396,4.5301375 C6.72300396,3.10750417 7.63865139,2.09329167 9.0813985,2.09329167 C10.4448297,2.09329167 11.3614811,3.05083333 11.3614811,4.45490208 C11.3614811,5.89512292 10.4167177,6.90054167 9.00308655,6.90054167 Z M9.04324652,2.8417375 C8.283219,2.8417375 7.7962793,3.5335125 7.7962793,4.500825 C7.7962793,5.44957292 8.29325899,6.14134792 9.03320653,6.14134792 C9.77315407,6.14134792 10.2701338,5.40169583 10.2701338,4.48128333 C10.2701338,3.54328333 9.78319407,2.8417375 9.04324652,2.8417375 Z M19.2509082,2.18806875 L17.7700091,6.79599375 L16.8051657,6.79599375 L16.1917221,4.79492708 C16.0391933,4.30545274 15.9121926,3.80878605 15.8112063,3.30682917 L15.7911263,3.30682917 C15.7138184,3.80905 15.5672345,4.31224792 15.4116146,4.79492708 L14.759015,6.79599375 L13.7841316,6.79599375 L12.3905805,2.18806875 L13.4718878,2.18806875 L14.0080235,4.37868958 C14.1345274,4.90045208 14.2409513,5.39290208 14.3293033,5.85799375 L14.3493832,5.85799375 C14.4266912,5.47009167 14.5531951,4.98545833 14.738935,4.38846042 L15.4116146,2.18904583 L16.2690301,2.18904583 L16.9125937,4.34156042 C17.0682136,4.86332292 17.1947175,5.37531458 17.2931094,5.85897083 L17.3212214,5.85897083 C17.3894934,5.38508542 17.4969213,4.8818875 17.6425012,4.34156042 L18.2177928,2.18904583 L19.2509082,2.18806875 L19.2509082,2.18806875 Z M24.7026248,6.79599375 L23.6504335,6.79599375 L23.6504335,4.15005208 C23.6504335,3.33516458 23.3291537,2.92674375 22.6956301,2.92674375 C22.0721465,2.92674375 21.6434387,3.44850625 21.6434387,4.055275 L21.6434387,6.79599375 L20.5912474,6.79599375 L20.5912474,3.50517708 C20.5912474,3.09773333 20.5812074,2.66097708 20.5520914,2.18709167 L21.4777788,2.18709167 L21.5269748,2.89840833 L21.5560908,2.89840833 C21.8392186,2.40595833 22.4135063,2.09329167 23.0570699,2.09329167 C24.0510292,2.09329167 24.7036288,2.83294375 24.7036288,4.03671042 L24.7026248,6.79599375 L24.7026248,6.79599375 Z M27.604183,6.79599375 L26.5509877,6.79599375 L26.5509877,0.0736604167 L27.604183,0.0736604167 L27.604183,6.79599375 Z M31.4404647,6.90054167 C30.0579575,6.90054167 29.1603821,5.89512292 29.1603821,4.5301375 C29.1603821,3.10750417 30.0760295,2.09329167 31.5177726,2.09329167 C32.8822078,2.09329167 33.7978552,3.05083333 33.7978552,4.45490208 C33.7988592,5.89512292 32.8530918,6.90054167 31.4404647,6.90054167 Z M31.4796206,2.8417375 C30.7195931,2.8417375 30.2326534,3.5335125 30.2326534,4.500825 C30.2326534,5.44957292 30.7306371,6.14134792 31.4685766,6.14134792 C32.2095282,6.14134792 32.7055039,5.40169583 32.7055039,4.48128333 C32.7065079,3.54328333 32.2205722,2.8417375 31.4796206,2.8417375 L31.4796206,2.8417375 Z M37.9463806,6.79599375 L37.8700767,6.2654375 L37.8419647,6.2654375 C37.5206849,6.69242292 37.0518172,6.90054167 36.4574496,6.90054167 C35.6090701,6.90054167 35.0066705,6.32210833 35.0066705,5.54435 C35.0066705,4.407025 36.0197058,3.81882083 37.7736927,3.81882083 L37.7736927,3.73381458 C37.7736927,3.12704583 37.443377,2.82317292 36.7907774,2.82317292 C36.3239176,2.82317292 35.9142859,2.93749167 35.5538501,3.16515208 L35.3399983,2.49194167 C35.777742,2.226175 36.3239176,2.09329167 36.9654732,2.09329167 C38.2024005,2.09329167 38.8268881,2.72839583 38.8268881,3.99958125 L38.8268881,5.696775 C38.8268881,6.16186667 38.8479721,6.52241042 38.8951601,6.79697083 L37.9463806,6.79599375 L37.9463806,6.79599375 Z M37.8018047,4.500825 C36.6331495,4.500825 36.0468138,4.7763625 36.0468138,5.43003125 C36.0468138,5.9136875 36.3490176,6.15014167 36.7686894,6.15014167 C37.303821,6.15014167 37.8018047,5.75246875 37.8018047,5.21214167 L37.8018047,4.500825 L37.8018047,4.500825 Z M43.9362409,6.79599375 L43.887045,6.05634167 L43.857929,6.05634167 C43.5557252,6.61523333 43.0477015,6.90054167 42.3378739,6.90054167 C41.1963266,6.90054167 40.3509592,5.92345833 40.3509592,4.54870208 C40.3509592,3.10750417 41.2274506,2.09231458 42.4242179,2.09231458 C43.0577415,2.09231458 43.5065292,2.30043333 43.759537,2.718625 L43.780621,2.718625 L43.780621,0.0736604167 L44.8338164,0.0736604167 L44.8338164,5.55412083 C44.8338164,5.99967083 44.8448604,6.41688542 44.8729724,6.79599375 L43.9362409,6.79599375 Z M43.780621,4.0845875 C43.780621,3.4397125 43.3418733,2.88961458 42.6722057,2.88961458 C41.8920982,2.88961458 41.4151985,3.562825 41.4151985,4.51059583 C41.4151985,5.43980208 41.9101702,6.07588333 42.6511217,6.07588333 C43.3127573,6.07588333 43.780621,5.51601458 43.780621,4.852575 L43.780621,4.0845875 Z M51.5114162,6.90054167 C50.1289091,6.90054167 49.2323377,5.89512292 49.2323377,4.5301375 C49.2323377,3.10750417 50.1479851,2.09329167 51.5897282,2.09329167 C52.9541634,2.09329167 53.8698108,3.05083333 53.8698108,4.45490208 C53.8708148,5.89512292 52.9260514,6.90054167 51.5114162,6.90054167 Z M51.5505722,2.8417375 C50.7915487,2.8417375 50.304609,3.5335125 50.304609,4.500825 C50.304609,5.44957292 50.8015887,6.14134792 51.5405322,6.14134792 C52.2814838,6.14134792 52.7774595,5.40169583 52.7774595,4.48128333 C52.7794675,3.54328333 52.2925278,2.8417375 51.5505722,2.8417375 Z M59.5283513,6.79599375 L58.4751559,6.79599375 L58.4751559,4.15005208 C58.4751559,3.33516458 58.1538761,2.92674375 57.5203525,2.92674375 C56.8968689,2.92674375 56.4691652,3.44850625 56.4691652,4.055275 L56.4691652,6.79599375 L55.4159698,6.79599375 L55.4159698,3.50517708 C55.4159698,3.09773333 55.4059298,2.66097708 55.3768139,2.18709167 L56.3025013,2.18709167 L56.3516973,2.89840833 L56.3808132,2.89840833 C56.6629371,2.40595833 57.2382287,2.09231458 57.8807883,2.09231458 C58.8747477,2.09231458 59.5283513,2.83196667 59.5283513,4.03573333 L59.5283513,6.79599375 Z M66.6075509,2.95605625 L65.4499396,2.95605625 L65.4499396,5.19357708 C65.4499396,5.76321667 65.6527475,6.04754792 66.0623792,6.04754792 C66.2481191,6.04754792 66.403739,6.02800625 66.529239,5.99967083 L66.5583549,6.77742917 C66.3545431,6.85364167 66.0814552,6.89174792 65.7421034,6.89174792 C64.9128,6.89174792 64.4168243,6.44619792 64.4168243,5.27956042 L64.4168243,2.95605625 L63.7260727,2.95605625 L63.7260727,2.18806875 L64.4168243,2.18806875 L64.4168243,1.34386875 L65.4499396,1.03999583 L65.4499396,2.18709167 L66.6075509,2.18709167 L66.6075509,2.95605625 L66.6075509,2.95605625 Z M72.1777395,6.79599375 L71.1265521,6.79599375 L71.1265521,4.16959375 C71.1265521,3.34493542 70.8062763,2.92772083 70.1717487,2.92772083 C69.626577,2.92772083 69.1185534,3.28826458 69.1185534,4.01814583 L69.1185534,6.79599375 L68.067366,6.79599375 L68.067366,0.0736604167 L69.1185534,0.0736604167 L69.1185534,2.8417375 L69.1396373,2.8417375 C69.4709571,2.33951667 69.9508688,2.09231458 70.5633085,2.09231458 C71.5652998,2.09231458 72.1777395,2.85053125 72.1777395,4.055275 L72.1777395,6.79599375 L72.1777395,6.79599375 Z M77.8844719,4.73825625 L74.7268939,4.73825625 C74.7469739,5.61079167 75.3403375,6.10324167 76.218837,6.10324167 C76.6856967,6.10324167 77.1154084,6.02702917 77.4949202,5.88535208 L77.6585721,6.59666875 C77.2107883,6.78622292 76.6836887,6.881 76.070245,6.881 C74.589346,6.881 73.7128545,5.97035833 73.7128545,4.55847292 C73.7128545,3.14561042 74.61043,2.08352083 75.9517731,2.08352083 C77.1615924,2.08352083 77.9206159,2.95605625 77.9206159,4.27414167 C77.9274197,4.42969239 77.9152873,4.58548023 77.8844719,4.73825625 L77.8844719,4.73825625 Z M76.9196285,4.008375 C76.9196285,3.29705833 76.5511608,2.7948375 75.8784812,2.7948375 C75.2740735,2.7948375 74.7961698,3.30682917 74.7278979,4.008375 L76.9196285,4.008375 L76.9196285,4.008375 Z" id="Shape"></path></g></g></g></g></g></g></svg>