<svg width="135px" height="41px" viewBox="0 0 135 41"><desc>Created with Sketch.</desc><defs><linearGradient x1="61.023168%" y1="4.5388%" x2="26.115776%" y2="71.6684%" id="linearGradient-1"><stop stop-color="#00A0FF" offset="0%"></stop><stop stop-color="#00A1FF" offset="0.657445%"></stop><stop stop-color="#00BEFF" offset="26.01%"></stop><stop stop-color="#00D2FF" offset="51.22%"></stop><stop stop-color="#00DFFF" offset="76.04%"></stop><stop stop-color="#00E3FF" offset="100%"></stop></linearGradient><linearGradient x1="107.727094%" y1="49.7223529%" x2="-130.66601%" y2="49.7223529%" id="linearGradient-2"><stop stop-color="#FFE000" offset="0%"></stop><stop stop-color="#FFBD00" offset="40.87%"></stop><stop stop-color="#FFA500" offset="77.54%"></stop><stop stop-color="#FF9C00" offset="100%"></stop></linearGradient><linearGradient x1="86.3886228%" y1="30.9452896%" x2="-49.8886228%" y2="136.119855%" id="linearGradient-3"><stop stop-color="#FF3A44" offset="0%"></stop><stop stop-color="#C31162" offset="100%"></stop></linearGradient><linearGradient x1="-18.5796407%" y1="-12.2790887%" x2="42.2742515%" y2="34.8320202%" id="linearGradient-4"><stop stop-color="#32A071" offset="0%"></stop><stop stop-color="#2DA771" offset="6.85%"></stop><stop stop-color="#15CF74" offset="47.62%"></stop><stop stop-color="#06E775" offset="80.09%"></stop><stop stop-color="#00F076" offset="100%"></stop></linearGradient></defs><g id="FInal" stroke="none" stroke-width="1" fill="none" fill-rule="evenodd"><g id="GetmyApp11" transform="translate(-799.000000, -767.000000)" fill-rule="nonzero"><g id="Group-4" transform="translate(789.000000, 651.000000)"><g id="google-play-badge" transform="translate(0.000000, 106.000000)"><rect id="Rectangle" fill-opacity="0" fill="#FFFFFF" x="0" y="0.1" width="155" height="60"></rect><path d="M140,50.1 L15,50.1 C12.2,50.1 10,47.9 10,45.1 L10,15.1 C10,12.4 12.2,10.1 15,10.1 L140,10.1 C142.8,10.1 145,12.3 145,15.1 L145,45.1 C145,47.9 142.8,50.1 140,50.1 Z" id="Path" fill="#000000"></path><path d="M140,10.9 C142.3,10.9 144.2,12.8 144.2,15.1 L144.2,45.1 C144.2,47.4 142.3,49.3 140,49.3 L15,49.3 C12.7,49.3 10.8,47.4 10.8,45.1 L10.8,15.1 C10.8,12.8 12.7,10.9 15,10.9 L140,10.9 L140,10.9 Z M140,10.1 L15,10.1 C12.2,10.1 10,12.3 10,15.1 L10,45.1 C10,47.9 12.2,50.1 15,50.1 L140,50.1 C142.8,50.1 145,47.9 145,45.1 L145,15.1 C145,12.4 142.8,10.1 140,10.1 L140,10.1 Z" id="Shape" fill="#A6A6A6"></path><g id="Group" transform="translate(51.000000, 17.000000)" fill="#FFFFFF" stroke="#FFFFFF" stroke-width="0.2"><path d="M6.4,3.4 C6.4,4.2 6.2,4.9 5.7,5.4 C5.1,6 4.4,6.3 3.5,6.3 C2.6,6.3 1.9,6 1.3,5.4 C0.7,4.8 0.4,4.1 0.4,3.2 C0.4,2.3 0.7,1.6 1.3,1 C1.9,0.3 2.6,0 3.5,0 C3.9,0 4.3,0.1 4.7,0.3 C5.1,0.5 5.4,0.7 5.6,1 L5.1,1.5 C4.7,1 4.2,0.8 3.5,0.8 C2.9,0.8 2.3,1 1.9,1.5 C1.4,1.9 1.2,2.5 1.2,3.2 C1.2,3.9 1.4,4.5 1.9,4.9 C2.4,5.3 2.9,5.6 3.5,5.6 C4.2,5.6 4.7,5.4 5.2,4.9 C5.5,4.6 5.7,4.2 5.7,3.7 L3.5,3.7 L3.5,2.9 L6.4,2.9 C6.4,3.1 6.4,3.2 6.4,3.4 Z" id="Path"></path><polygon id="Path" points="11 0.9 8.3 0.9 8.3 2.8 10.8 2.8 10.8 3.5 8.3 3.5 8.3 5.4 11 5.4 11 6.1 7.5 6.1 7.5 0.1 11 0.1"></polygon><polygon id="Path" points="14.3 6.1 13.5 6.1 13.5 0.9 11.8 0.9 11.8 0.1 16 0.1 16 0.8 14.3 0.8"></polygon><polygon id="Path" points="18.9 6.1 18.9 0.1 19.7 0.1 19.7 6.1"></polygon><polygon id="Path" points="23.1 6.1 22.3 6.1 22.3 0.9 20.6 0.9 20.6 0.1 24.7 0.1 24.7 0.8 23 0.8 23 6.1"></polygon><path d="M32.6,5.3 C32,5.9 31.3,6.2 30.4,6.2 C29.5,6.2 28.8,5.9 28.2,5.3 C27.6,4.7 27.3,4 27.3,3.1 C27.3,2.2 27.6,1.5 28.2,0.9 C28.8,0.3 29.5,0 30.4,0 C31.3,0 32,0.3 32.6,0.9 C33.2,1.5 33.5,2.2 33.5,3.1 C33.5,4 33.2,4.7 32.6,5.3 Z M28.8,4.8 C29.2,5.2 29.8,5.5 30.4,5.5 C31,5.5 31.6,5.3 32,4.8 C32.4,4.4 32.7,3.8 32.7,3.1 C32.7,2.4 32.5,1.9 32,1.4 C31.6,1 31,0.7 30.4,0.7 C29.8,0.7 29.2,0.9 28.8,1.4 C28.4,1.8 28.1,2.4 28.1,3.1 C28.1,3.8 28.3,4.4 28.8,4.8 Z" id="Shape"></path><polygon id="Path" points="34.6 6.1 34.6 0.1 35.5 0.1 38.4 4.8 38.4 4.8 38.4 3.6 38.4 0.1 39.2 0.1 39.2 6.1 38.4 6.1 35.3 1.2 35.3 1.2 35.3 2.4 35.3 6.1 34.6 6.1"></polygon></g><path d="M78.1,31.9 C75.7,31.9 73.8,33.7 73.8,36.2 C73.8,38.6 75.7,40.5 78.1,40.5 C80.5,40.5 82.4,38.7 82.4,36.2 C82.4,33.7 80.5,31.9 78.1,31.9 Z M78.1,38.7 C76.8,38.7 75.7,37.6 75.7,36.1 C75.7,34.6 76.8,33.5 78.1,33.5 C79.4,33.5 80.5,34.5 80.5,36.1 C80.5,37.6 79.4,38.7 78.1,38.7 Z M68.8,31.9 C66.4,31.9 64.5,33.7 64.5,36.2 C64.5,38.6 66.4,40.5 68.8,40.5 C71.2,40.5 73.1,38.7 73.1,36.2 C73.1,33.7 71.2,31.9 68.8,31.9 Z M68.8,38.7 C67.5,38.7 66.4,37.6 66.4,36.1 C66.4,34.6 67.5,33.5 68.8,33.5 C70.1,33.5 71.2,34.5 71.2,36.1 C71.2,37.6 70.1,38.7 68.8,38.7 Z M57.7,33.2 L57.7,35 L62,35 C61.9,36 61.5,36.8 61,37.3 C60.4,37.9 59.4,38.6 57.7,38.6 C55,38.6 53,36.5 53,33.8 C53,31.1 55.1,29 57.7,29 C59.1,29 60.2,29.6 61,30.3 L62.3,29 C61.2,28 59.8,27.2 57.8,27.2 C54.2,27.2 51.1,30.2 51.1,33.8 C51.1,37.4 54.2,40.4 57.8,40.4 C59.8,40.4 61.2,39.8 62.4,38.5 C63.6,37.3 64,35.6 64,34.3 C64,33.9 64,33.5 63.9,33.2 L57.7,33.2 Z M103.1,34.6 C102.7,33.6 101.7,31.9 99.5,31.9 C97.3,31.9 95.5,33.6 95.5,36.2 C95.5,38.6 97.3,40.5 99.7,40.5 C101.6,40.5 102.8,39.3 103.2,38.6 L101.8,37.6 C101.3,38.3 100.7,38.8 99.7,38.8 C98.7,38.8 98.1,38.4 97.6,37.5 L103.3,35.1 L103.1,34.6 Z M97.3,36 C97.3,34.4 98.6,33.5 99.5,33.5 C100.2,33.5 100.9,33.9 101.1,34.4 L97.3,36 Z M92.6,40.1 L94.5,40.1 L94.5,27.6 L92.6,27.6 L92.6,40.1 Z M89.6,32.8 L89.6,32.8 C89.1,32.3 88.3,31.8 87.3,31.8 C85.2,31.8 83.2,33.7 83.2,36.1 C83.2,38.5 85.1,40.3 87.3,40.3 C88.3,40.3 89.1,39.8 89.5,39.3 L89.6,39.3 L89.6,40 C89.6,41.6 88.7,42.5 87.3,42.5 C86.2,42.5 85.4,41.7 85.2,41 L83.6,41.7 C84.1,42.8 85.3,44.2 87.4,44.2 C89.6,44.2 91.4,42.9 91.4,39.8 L91.4,32.2 L89.6,32.2 L89.6,32.8 L89.6,32.8 Z M87.4,38.7 C86.1,38.7 85,37.6 85,36.1 C85,34.6 86.1,33.5 87.4,33.5 C88.7,33.5 89.7,34.6 89.7,36.1 C89.7,37.6 88.7,38.7 87.4,38.7 Z M111.8,27.6 L107.3,27.6 L107.3,40.1 L109.2,40.1 L109.2,35.4 L111.8,35.4 C113.9,35.4 115.9,33.9 115.9,31.5 C115.9,29.1 113.9,27.6 111.8,27.6 Z M111.9,33.6 L109.2,33.6 L109.2,29.3 L111.9,29.3 C113.3,29.3 114.1,30.5 114.1,31.4 C114,32.5 113.2,33.6 111.9,33.6 Z M123.4,31.9 C122,31.9 120.6,32.5 120.1,33.8 L121.8,34.5 C122.2,33.8 122.8,33.6 123.5,33.6 C124.5,33.6 125.4,34.2 125.5,35.2 L125.5,35.3 C125.2,35.1 124.4,34.8 123.6,34.8 C121.8,34.8 120,35.8 120,37.6 C120,39.3 121.5,40.4 123.1,40.4 C124.4,40.4 125,39.8 125.5,39.2 L125.6,39.2 L125.6,40.2 L127.4,40.2 L127.4,35.4 C127.2,33.1 125.5,31.9 123.4,31.9 Z M123.2,38.7 C122.6,38.7 121.7,38.4 121.7,37.6 C121.7,36.6 122.8,36.3 123.7,36.3 C124.5,36.3 124.9,36.5 125.4,36.7 C125.2,37.9 124.2,38.7 123.2,38.7 Z M133.7,32.1 L131.6,37.5 L131.5,37.5 L129.3,32.1 L127.3,32.1 L130.6,39.7 L128.7,43.9 L130.6,43.9 L135.7,32.1 L133.7,32.1 L133.7,32.1 Z M116.9,40.1 L118.8,40.1 L118.8,27.6 L116.9,27.6 L116.9,40.1 Z" id="Shape" fill="#FFFFFF"></path><g id="Group" transform="translate(19.000000, 17.000000)"><path d="M1.4,0.7 C1.1,1 1,1.4 1,2.1 L1,24.2 C1,24.8 1.2,25.3 1.5,25.6 L1.6,25.7 L14,13.3 L14,13.2 L14,13 L1.4,0.7 L1.4,0.7 Z" id="Path" fill="url(#linearGradient-1)"></path><path d="M18,17.4 L13.9,13.3 L13.9,13.2 L13.9,13 L18,8.9 L18.1,9 L23,11.8 C24.4,12.6 24.4,13.9 23,14.7 L18,17.4 L18,17.4 Z" id="Path" fill="url(#linearGradient-2)"></path><path d="M18.1,17.3 L13.9,13.1 L1.4,25.6 C1.9,26.1 2.6,26.1 3.5,25.7 L18.1,17.3" id="Path" fill="url(#linearGradient-3)"></path><path d="M18.1,8.9 L3.5,0.6 C2.6,0.1 1.9,0.2 1.4,0.7 L13.9,13.2 L18.1,8.9 Z" id="Path" fill="url(#linearGradient-4)"></path><g transform="translate(0.000000, 17.000000)" fill="#000000" id="Path"><path d="M18,0.3 L3.5,8.5 C2.7,9 2,8.9 1.5,8.5 L1.5,8.5 L1.4,8.6 L1.4,8.6 L1.5,8.7 L1.5,8.7 C2,9.1 2.7,9.2 3.5,8.7 L18,0.3 L18,0.3 Z" opacity="0.2"></path><path d="M1.4,8.4 C1.1,8.1 1,7.7 1,7 L1,7.1 C1,7.7 1.2,8.2 1.5,8.5 L1.5,8.4 L1.4,8.4 Z" opacity="0.12"></path></g><path d="M23,14.4 L18,17.2 L18.1,17.3 L23,14.5 C23.7,14.1 24,13.6 24,13.1 L24,13.1 C24,13.6 23.6,14.1 23,14.4 Z" id="Path" fill="#000000" opacity="0.12"></path><path d="M3.5,0.7 L23,11.8 C23.6,12.2 24,12.6 24,13.1 L24,13.1 C24,12.6 23.7,12.1 23,11.7 L3.5,0.6 C2.1,-0.2 1,0.5 1,2.1 L1,2.2 C1,0.6 2.1,0 3.5,0.7 Z" id="Path" fill="#FFFFFF" opacity="0.25"></path></g></g></g></g></g></svg>